# Blender v2.93.6 OBJ File: 'opticalRec.blend'
# www.blender.org
mtllib opticalRec.mtl
o Cube.003
v 1.935373 -4.005231 -1.949983
v -14.064627 -4.005230 -1.949983
v 1.935373 -8.005231 -1.949983
v -14.064627 -8.005230 -1.949983
v 1.935373 -4.005231 2.050016
v -14.064627 -4.005230 2.050017
v 1.935373 -8.005231 2.050016
v -14.064627 -8.005230 2.050017
v 1.933624 8.000000 -2.000000
v 1.933624 -8.000000 -2.000000
v 1.933624 8.000000 2.000000
v 1.933624 -8.000000 2.000000
v -2.666376 8.000000 -2.000000
v -2.666376 -8.000000 -2.000000
v -2.666375 8.000000 2.000000
v -2.666376 -8.000000 2.000000
v 2.072974 8.019180 13.899324
v 2.072975 8.019180 -2.100676
v 2.072974 4.019180 13.899324
v 2.072974 4.019180 -2.100676
v -1.927025 8.019180 13.899324
v -1.927025 8.019180 -2.100676
v -1.927026 4.019180 13.899324
v -1.927025 4.019180 -2.100676
v 2.147942 8.048727 11.924658
v 2.147943 -2.951274 11.924658
v 2.147942 8.048727 13.924658
v 2.147943 -2.951274 13.924658
v -1.852058 8.048727 11.924658
v -1.852058 -2.951274 11.924658
v -1.852058 8.048727 13.924658
v -1.852057 -2.951274 13.924658
vt 0.625000 0.500000
vt 0.875000 0.500000
vt 0.875000 0.750000
vt 0.625000 0.750000
vt 0.375000 0.750000
vt 0.625000 1.000000
vt 0.375000 1.000000
vt 0.375000 0.000000
vt 0.625000 0.000000
vt 0.625000 0.250000
vt 0.375000 0.250000
vt 0.125000 0.500000
vt 0.375000 0.500000
vt 0.125000 0.750000
vt 0.625000 0.500000
vt 0.875000 0.500000
vt 0.875000 0.750000
vt 0.625000 0.750000
vt 0.375000 0.750000
vt 0.625000 1.000000
vt 0.375000 1.000000
vt 0.375000 0.000000
vt 0.625000 0.000000
vt 0.625000 0.250000
vt 0.375000 0.250000
vt 0.125000 0.500000
vt 0.375000 0.500000
vt 0.125000 0.750000
vt 0.625000 0.500000
vt 0.875000 0.500000
vt 0.875000 0.750000
vt 0.625000 0.750000
vt 0.375000 0.750000
vt 0.625000 1.000000
vt 0.375000 1.000000
vt 0.375000 0.000000
vt 0.625000 0.000000
vt 0.625000 0.250000
vt 0.375000 0.250000
vt 0.125000 0.500000
vt 0.375000 0.500000
vt 0.125000 0.750000
vt 0.625000 0.500000
vt 0.875000 0.500000
vt 0.875000 0.750000
vt 0.625000 0.750000
vt 0.375000 0.750000
vt 0.625000 1.000000
vt 0.375000 1.000000
vt 0.375000 0.000000
vt 0.625000 0.000000
vt 0.625000 0.250000
vt 0.375000 0.250000
vt 0.125000 0.500000
vt 0.375000 0.500000
vt 0.125000 0.750000
vn 1.0000 0.0000 0.0000
vn -0.0000 -1.0000 0.0000
vn 0.0000 0.0000 1.0000
vn -1.0000 0.0000 0.0000
vn -0.0000 0.0000 -1.0000
vn 0.0000 1.0000 0.0000
usemtl Material
s off
f 1/1/1 5/2/1 7/3/1 3/4/1
f 4/5/2 3/4/2 7/6/2 8/7/2
f 8/8/3 7/9/3 5/10/3 6/11/3
f 6/12/4 2/13/4 4/5/4 8/14/4
f 2/13/5 1/1/5 3/4/5 4/5/5
f 6/11/6 5/10/6 1/1/6 2/13/6
f 9/15/6 13/16/6 15/17/6 11/18/6
f 12/19/3 11/18/3 15/20/3 16/21/3
f 16/22/4 15/23/4 13/24/4 14/25/4
f 14/26/2 10/27/2 12/19/2 16/28/2
f 10/27/1 9/15/1 11/18/1 12/19/1
f 14/25/5 13/24/5 9/15/5 10/27/5
f 17/29/3 21/30/3 23/31/3 19/32/3
f 20/33/2 19/32/2 23/34/2 24/35/2
f 24/36/4 23/37/4 21/38/4 22/39/4
f 22/40/5 18/41/5 20/33/5 24/42/5
f 18/41/1 17/29/1 19/32/1 20/33/1
f 22/39/6 21/38/6 17/29/6 18/41/6
f 25/43/6 29/44/6 31/45/6 27/46/6
f 28/47/3 27/46/3 31/48/3 32/49/3
f 32/50/4 31/51/4 29/52/4 30/53/4
f 30/54/2 26/55/2 28/47/2 32/56/2
f 26/55/1 25/43/1 27/46/1 28/47/1
f 30/53/5 29/52/5 25/43/5 26/55/5
